<?xml version="1.0" encoding="utf-8"?>
<!-- Generator: Adobe Illustrator 23.0.1, SVG Export Plug-In . SVG Version: 6.00 Build 0)  -->
<svg version="1.1" id="Camada_1" xmlns="http://www.w3.org/2000/svg" xmlns:xlink="http://www.w3.org/1999/xlink" x="0px" y="0px"
	 viewBox="0 0 510.2 510.2" style="enable-background:new 0 0 510.2 510.2;" xml:space="preserve">
<style type="text/css">
	.st0{fill:#18345A;}
	.st1{fill:#9FEF14;}
</style>
<g id="Camada_3">
</g>
<g>
	<path class="st0" d="M444.6,65.1c-7.7,34.1-27.5,52.3-60.8,61.8c-40.7,11.6-82.6,23.5-123.4,34.8c-45.2,12.5-62.1,37.7-43.3,81.4
		c-14.4,17.8-45.4,5.8-62.4-1.7c-16.7-17.2-15.6-44.9-9.1-66.2c9.5-30.2,33.3-55.2,60.8-70.1C291.4,69.9,376.3,34.8,461.3-0.1
		C455.7,21.6,450.1,43.4,444.6,65.1z"/>
	<path class="st1" d="M217.2,243.1c0,0-3.5-4.6-8.8-12.8c-25.9-38.6-57.7-96.1-1.8-125.2c-17.9,7.5-34,18-48.5,29.7
		c-43.3,34.8-54.8,105.6-66.6,157.7c-5.7,25,22.3,38.2,43.5,33c23.4-5.6,48.5-12.3,71.2-17.9C240.8,299.1,233.7,265.2,217.2,243.1z"
		/>
	<path class="st0" d="M66.5,445.7c7.7-34.1,27.5-52.3,60.8-61.8c40.7-11.6,82.6-23.5,123.4-34.8c45.2-12.5,62.1-37.7,43.3-81.4
		c14.4-17.8,45.4-5.8,62.4,1.7c16.7,17.2,15.6,44.9,8.9,66.2c-9.5,30.2-33.3,55.2-60.8,70.1C219.7,440.8,134.8,476,49.8,510.9
		C55.5,489.2,61,467.4,66.5,445.7z"/>
	<path class="st1" d="M294,267.7c0,0,3.5,4.5,8.8,12.8c25.9,38.6,57.7,96.1,1.8,125.2c17.9-7.5,34-18,48.5-29.7
		c43.3-34.8,54.8-105.8,66.6-157.9c5.7-25-22.3-38.2-43.5-33c-23.4,5.6-48.5,12.3-71.2,17.9C270.3,211.6,277.5,245.6,294,267.7z"/>
	<g id="Camada_4">
	</g>
</g>
</svg>
